<svg xmlns="http://www.w3.org/2000/svg" width="960" height="556" viewBox="0 0 960 556" role="img" aria-labelledby="chart-title chart-desc" font-family="Arial, Helvetica Neue, PingFang SC, Microsoft YaHei, sans-serif">
<title id="chart-title">Which LLM apps do you use most?</title>
<desc id="chart-desc">ChatGPT: 42; DeepSeek: 20; Doubao (豆包): 10; Gemini: 6; Claude: 4; Kimi: 3; Qwen (千问): 2; Tencent Yuanbao (腾讯元宝): 1; Zhipu Qingyan (智谱清言): 1</desc>
<rect width="960" height="556" fill="#fbfbf9"/>
<text x="32" y="44" font-size="26" font-weight="700" fill="#202b38">Which LLM apps do you use most?</text>
<text x="32" y="72" font-size="17" fill="#566471">Lecture 01 survey · 48 responses · counted September 14, 2026</text>
<line x1="250.0" y1="88" x2="250.0" y2="492" stroke="#dce2e7" stroke-width="1"/>
<text x="250.0" y="516" font-size="15" fill="#566471" text-anchor="middle">0</text>
<line x1="323.8" y1="88" x2="323.8" y2="492" stroke="#dce2e7" stroke-width="1"/>
<text x="323.8" y="516" font-size="15" fill="#566471" text-anchor="middle">5</text>
<line x1="397.6" y1="88" x2="397.6" y2="492" stroke="#dce2e7" stroke-width="1"/>
<text x="397.6" y="516" font-size="15" fill="#566471" text-anchor="middle">10</text>
<line x1="471.4" y1="88" x2="471.4" y2="492" stroke="#dce2e7" stroke-width="1"/>
<text x="471.4" y="516" font-size="15" fill="#566471" text-anchor="middle">15</text>
<line x1="545.2" y1="88" x2="545.2" y2="492" stroke="#dce2e7" stroke-width="1"/>
<text x="545.2" y="516" font-size="15" fill="#566471" text-anchor="middle">20</text>
<line x1="619.0" y1="88" x2="619.0" y2="492" stroke="#dce2e7" stroke-width="1"/>
<text x="619.0" y="516" font-size="15" fill="#566471" text-anchor="middle">25</text>
<line x1="692.9" y1="88" x2="692.9" y2="492" stroke="#dce2e7" stroke-width="1"/>
<text x="692.9" y="516" font-size="15" fill="#566471" text-anchor="middle">30</text>
<line x1="766.7" y1="88" x2="766.7" y2="492" stroke="#dce2e7" stroke-width="1"/>
<text x="766.7" y="516" font-size="15" fill="#566471" text-anchor="middle">35</text>
<line x1="840.5" y1="88" x2="840.5" y2="492" stroke="#dce2e7" stroke-width="1"/>
<text x="840.5" y="516" font-size="15" fill="#566471" text-anchor="middle">40</text>
<text x="236" y="116.0" font-size="17" fill="#202b38" text-anchor="end">ChatGPT</text>
<rect x="250" y="96" width="620.0" height="28" rx="4" fill="#20578c"/>
<text x="880.0" y="116.0" font-size="16" fill="#202b38">42</text>
<text x="236" y="160.0" font-size="17" fill="#202b38" text-anchor="end">DeepSeek</text>
<rect x="250" y="140" width="295.2" height="28" rx="4" fill="#20578c"/>
<text x="555.2" y="160.0" font-size="16" fill="#202b38">20</text>
<text x="236" y="204.0" font-size="17" fill="#202b38" text-anchor="end">Doubao (豆包)</text>
<rect x="250" y="184" width="147.6" height="28" rx="4" fill="#20578c"/>
<text x="407.6" y="204.0" font-size="16" fill="#202b38">10</text>
<text x="236" y="248.0" font-size="17" fill="#202b38" text-anchor="end">Gemini</text>
<rect x="250" y="228" width="88.6" height="28" rx="4" fill="#20578c"/>
<text x="348.6" y="248.0" font-size="16" fill="#202b38">6</text>
<text x="236" y="292.0" font-size="17" fill="#202b38" text-anchor="end">Claude</text>
<rect x="250" y="272" width="59.0" height="28" rx="4" fill="#20578c"/>
<text x="319.0" y="292.0" font-size="16" fill="#202b38">4</text>
<text x="236" y="336.0" font-size="17" fill="#202b38" text-anchor="end">Kimi</text>
<rect x="250" y="316" width="44.3" height="28" rx="4" fill="#20578c"/>
<text x="304.3" y="336.0" font-size="16" fill="#202b38">3</text>
<text x="236" y="380.0" font-size="17" fill="#202b38" text-anchor="end">Qwen (千问)</text>
<rect x="250" y="360" width="29.5" height="28" rx="4" fill="#20578c"/>
<text x="289.5" y="380.0" font-size="16" fill="#202b38">2</text>
<text x="236" y="424.0" font-size="17" fill="#202b38" text-anchor="end">Tencent Yuanbao (腾讯元宝)</text>
<rect x="250" y="404" width="14.8" height="28" rx="4" fill="#20578c"/>
<text x="274.8" y="424.0" font-size="16" fill="#202b38">1</text>
<text x="236" y="468.0" font-size="17" fill="#202b38" text-anchor="end">Zhipu Qingyan (智谱清言)</text>
<rect x="250" y="448" width="14.8" height="28" rx="4" fill="#20578c"/>
<text x="274.8" y="468.0" font-size="16" fill="#202b38">1</text>
<text x="560.0" y="544" font-size="15" fill="#566471" text-anchor="middle">Students who selected the app (at most two selections each)</text>
</svg>
