<svg xmlns="http://www.w3.org/2000/svg" width="960" height="556" viewBox="0 0 960 556" role="img" aria-labelledby="chart-title chart-desc" font-family="Arial, Helvetica Neue, PingFang SC, Microsoft YaHei, sans-serif">
<title id="chart-title">Which LLM apps do you use most?</title>
<desc id="chart-desc">ChatGPT: 66; DeepSeek: 30; Doubao (豆包): 19; Gemini: 9; Claude: 8; Qwen (千问): 3; Kimi: 3; Tencent Yuanbao (腾讯元宝): 1; Zhipu Qingyan (智谱清言): 1</desc>
<rect width="960" height="556" fill="#fbfbf9"/>
<text x="32" y="44" font-size="26" font-weight="700" fill="#202b38">Which LLM apps do you use most?</text>
<text x="32" y="72" font-size="17" fill="#566471">Lecture 01 survey · 77 responses · counted September 15, 2026</text>
<line x1="250.0" y1="88" x2="250.0" y2="492" stroke="#dce2e7" stroke-width="1"/>
<text x="250.0" y="516" font-size="15" fill="#566471" text-anchor="middle">0</text>
<line x1="297.0" y1="88" x2="297.0" y2="492" stroke="#dce2e7" stroke-width="1"/>
<text x="297.0" y="516" font-size="15" fill="#566471" text-anchor="middle">5</text>
<line x1="343.9" y1="88" x2="343.9" y2="492" stroke="#dce2e7" stroke-width="1"/>
<text x="343.9" y="516" font-size="15" fill="#566471" text-anchor="middle">10</text>
<line x1="390.9" y1="88" x2="390.9" y2="492" stroke="#dce2e7" stroke-width="1"/>
<text x="390.9" y="516" font-size="15" fill="#566471" text-anchor="middle">15</text>
<line x1="437.9" y1="88" x2="437.9" y2="492" stroke="#dce2e7" stroke-width="1"/>
<text x="437.9" y="516" font-size="15" fill="#566471" text-anchor="middle">20</text>
<line x1="484.8" y1="88" x2="484.8" y2="492" stroke="#dce2e7" stroke-width="1"/>
<text x="484.8" y="516" font-size="15" fill="#566471" text-anchor="middle">25</text>
<line x1="531.8" y1="88" x2="531.8" y2="492" stroke="#dce2e7" stroke-width="1"/>
<text x="531.8" y="516" font-size="15" fill="#566471" text-anchor="middle">30</text>
<line x1="578.8" y1="88" x2="578.8" y2="492" stroke="#dce2e7" stroke-width="1"/>
<text x="578.8" y="516" font-size="15" fill="#566471" text-anchor="middle">35</text>
<line x1="625.8" y1="88" x2="625.8" y2="492" stroke="#dce2e7" stroke-width="1"/>
<text x="625.8" y="516" font-size="15" fill="#566471" text-anchor="middle">40</text>
<line x1="672.7" y1="88" x2="672.7" y2="492" stroke="#dce2e7" stroke-width="1"/>
<text x="672.7" y="516" font-size="15" fill="#566471" text-anchor="middle">45</text>
<line x1="719.7" y1="88" x2="719.7" y2="492" stroke="#dce2e7" stroke-width="1"/>
<text x="719.7" y="516" font-size="15" fill="#566471" text-anchor="middle">50</text>
<line x1="766.7" y1="88" x2="766.7" y2="492" stroke="#dce2e7" stroke-width="1"/>
<text x="766.7" y="516" font-size="15" fill="#566471" text-anchor="middle">55</text>
<line x1="813.6" y1="88" x2="813.6" y2="492" stroke="#dce2e7" stroke-width="1"/>
<text x="813.6" y="516" font-size="15" fill="#566471" text-anchor="middle">60</text>
<line x1="860.6" y1="88" x2="860.6" y2="492" stroke="#dce2e7" stroke-width="1"/>
<text x="860.6" y="516" font-size="15" fill="#566471" text-anchor="middle">65</text>
<text x="236" y="116.0" font-size="17" fill="#202b38" text-anchor="end">ChatGPT</text>
<rect x="250" y="96" width="620.0" height="28" rx="4" fill="#20578c"/>
<text x="880.0" y="116.0" font-size="16" fill="#202b38">66</text>
<text x="236" y="160.0" font-size="17" fill="#202b38" text-anchor="end">DeepSeek</text>
<rect x="250" y="140" width="281.8" height="28" rx="4" fill="#20578c"/>
<text x="541.8" y="160.0" font-size="16" fill="#202b38">30</text>
<text x="236" y="204.0" font-size="17" fill="#202b38" text-anchor="end">Doubao (豆包)</text>
<rect x="250" y="184" width="178.5" height="28" rx="4" fill="#20578c"/>
<text x="438.5" y="204.0" font-size="16" fill="#202b38">19</text>
<text x="236" y="248.0" font-size="17" fill="#202b38" text-anchor="end">Gemini</text>
<rect x="250" y="228" width="84.5" height="28" rx="4" fill="#20578c"/>
<text x="344.5" y="248.0" font-size="16" fill="#202b38">9</text>
<text x="236" y="292.0" font-size="17" fill="#202b38" text-anchor="end">Claude</text>
<rect x="250" y="272" width="75.2" height="28" rx="4" fill="#20578c"/>
<text x="335.2" y="292.0" font-size="16" fill="#202b38">8</text>
<text x="236" y="336.0" font-size="17" fill="#202b38" text-anchor="end">Qwen (千问)</text>
<rect x="250" y="316" width="28.2" height="28" rx="4" fill="#20578c"/>
<text x="288.2" y="336.0" font-size="16" fill="#202b38">3</text>
<text x="236" y="380.0" font-size="17" fill="#202b38" text-anchor="end">Kimi</text>
<rect x="250" y="360" width="28.2" height="28" rx="4" fill="#20578c"/>
<text x="288.2" y="380.0" font-size="16" fill="#202b38">3</text>
<text x="236" y="424.0" font-size="17" fill="#202b38" text-anchor="end">Tencent Yuanbao (腾讯元宝)</text>
<rect x="250" y="404" width="9.4" height="28" rx="4" fill="#20578c"/>
<text x="269.4" y="424.0" font-size="16" fill="#202b38">1</text>
<text x="236" y="468.0" font-size="17" fill="#202b38" text-anchor="end">Zhipu Qingyan (智谱清言)</text>
<rect x="250" y="448" width="9.4" height="28" rx="4" fill="#20578c"/>
<text x="269.4" y="468.0" font-size="16" fill="#202b38">1</text>
<text x="560.0" y="544" font-size="15" fill="#566471" text-anchor="middle">Students who selected the app (at most two selections each)</text>
</svg>
