<svg xmlns="http://www.w3.org/2000/svg" width="960" height="600" viewBox="0 0 960 600" role="img" aria-labelledby="chart-title chart-desc" font-family="Arial, Helvetica Neue, PingFang SC, Microsoft YaHei, sans-serif">
<title id="chart-title">Which LLM apps do you use most?</title>
<desc id="chart-desc">ChatGPT: 50; DeepSeek: 26; Doubao (豆包): 11; Gemini: 8; Claude: 5; Kimi: 3; Qwen (千问): 2; Tencent Yuanbao (腾讯元宝): 1; Zhipu Qingyan (智谱清言): 1; Doubao: 1</desc>
<rect width="960" height="600" fill="#fbfbf9"/>
<text x="32" y="44" font-size="26" font-weight="700" fill="#202b38">Which LLM apps do you use most?</text>
<text x="32" y="72" font-size="17" fill="#566471">Lecture 01 survey · 61 responses · counted September 15, 2026</text>
<line x1="250.0" y1="88" x2="250.0" y2="536" stroke="#dce2e7" stroke-width="1"/>
<text x="250.0" y="560" font-size="15" fill="#566471" text-anchor="middle">0</text>
<line x1="312.0" y1="88" x2="312.0" y2="536" stroke="#dce2e7" stroke-width="1"/>
<text x="312.0" y="560" font-size="15" fill="#566471" text-anchor="middle">5</text>
<line x1="374.0" y1="88" x2="374.0" y2="536" stroke="#dce2e7" stroke-width="1"/>
<text x="374.0" y="560" font-size="15" fill="#566471" text-anchor="middle">10</text>
<line x1="436.0" y1="88" x2="436.0" y2="536" stroke="#dce2e7" stroke-width="1"/>
<text x="436.0" y="560" font-size="15" fill="#566471" text-anchor="middle">15</text>
<line x1="498.0" y1="88" x2="498.0" y2="536" stroke="#dce2e7" stroke-width="1"/>
<text x="498.0" y="560" font-size="15" fill="#566471" text-anchor="middle">20</text>
<line x1="560.0" y1="88" x2="560.0" y2="536" stroke="#dce2e7" stroke-width="1"/>
<text x="560.0" y="560" font-size="15" fill="#566471" text-anchor="middle">25</text>
<line x1="622.0" y1="88" x2="622.0" y2="536" stroke="#dce2e7" stroke-width="1"/>
<text x="622.0" y="560" font-size="15" fill="#566471" text-anchor="middle">30</text>
<line x1="684.0" y1="88" x2="684.0" y2="536" stroke="#dce2e7" stroke-width="1"/>
<text x="684.0" y="560" font-size="15" fill="#566471" text-anchor="middle">35</text>
<line x1="746.0" y1="88" x2="746.0" y2="536" stroke="#dce2e7" stroke-width="1"/>
<text x="746.0" y="560" font-size="15" fill="#566471" text-anchor="middle">40</text>
<line x1="808.0" y1="88" x2="808.0" y2="536" stroke="#dce2e7" stroke-width="1"/>
<text x="808.0" y="560" font-size="15" fill="#566471" text-anchor="middle">45</text>
<line x1="870.0" y1="88" x2="870.0" y2="536" stroke="#dce2e7" stroke-width="1"/>
<text x="870.0" y="560" font-size="15" fill="#566471" text-anchor="middle">50</text>
<text x="236" y="116.0" font-size="17" fill="#202b38" text-anchor="end">ChatGPT</text>
<rect x="250" y="96" width="620.0" height="28" rx="4" fill="#20578c"/>
<text x="880.0" y="116.0" font-size="16" fill="#202b38">50</text>
<text x="236" y="160.0" font-size="17" fill="#202b38" text-anchor="end">DeepSeek</text>
<rect x="250" y="140" width="322.4" height="28" rx="4" fill="#20578c"/>
<text x="582.4" y="160.0" font-size="16" fill="#202b38">26</text>
<text x="236" y="204.0" font-size="17" fill="#202b38" text-anchor="end">Doubao (豆包)</text>
<rect x="250" y="184" width="136.4" height="28" rx="4" fill="#20578c"/>
<text x="396.4" y="204.0" font-size="16" fill="#202b38">11</text>
<text x="236" y="248.0" font-size="17" fill="#202b38" text-anchor="end">Gemini</text>
<rect x="250" y="228" width="99.2" height="28" rx="4" fill="#20578c"/>
<text x="359.2" y="248.0" font-size="16" fill="#202b38">8</text>
<text x="236" y="292.0" font-size="17" fill="#202b38" text-anchor="end">Claude</text>
<rect x="250" y="272" width="62.0" height="28" rx="4" fill="#20578c"/>
<text x="322.0" y="292.0" font-size="16" fill="#202b38">5</text>
<text x="236" y="336.0" font-size="17" fill="#202b38" text-anchor="end">Kimi</text>
<rect x="250" y="316" width="37.2" height="28" rx="4" fill="#20578c"/>
<text x="297.2" y="336.0" font-size="16" fill="#202b38">3</text>
<text x="236" y="380.0" font-size="17" fill="#202b38" text-anchor="end">Qwen (千问)</text>
<rect x="250" y="360" width="24.8" height="28" rx="4" fill="#20578c"/>
<text x="284.8" y="380.0" font-size="16" fill="#202b38">2</text>
<text x="236" y="424.0" font-size="17" fill="#202b38" text-anchor="end">Tencent Yuanbao (腾讯元宝)</text>
<rect x="250" y="404" width="12.4" height="28" rx="4" fill="#20578c"/>
<text x="272.4" y="424.0" font-size="16" fill="#202b38">1</text>
<text x="236" y="468.0" font-size="17" fill="#202b38" text-anchor="end">Zhipu Qingyan (智谱清言)</text>
<rect x="250" y="448" width="12.4" height="28" rx="4" fill="#20578c"/>
<text x="272.4" y="468.0" font-size="16" fill="#202b38">1</text>
<text x="236" y="512.0" font-size="17" fill="#202b38" text-anchor="end">Doubao</text>
<rect x="250" y="492" width="12.4" height="28" rx="4" fill="#20578c"/>
<text x="272.4" y="512.0" font-size="16" fill="#202b38">1</text>
<text x="560.0" y="588" font-size="15" fill="#566471" text-anchor="middle">Students who selected the app (at most two selections each)</text>
</svg>
