<svg xmlns="http://www.w3.org/2000/svg" width="960" height="556" viewBox="0 0 960 556" role="img" aria-labelledby="chart-title chart-desc" font-family="Arial, Helvetica Neue, PingFang SC, Microsoft YaHei, sans-serif">
<title id="chart-title">Which LLM apps do you use most?</title>
<desc id="chart-desc">ChatGPT: 58; DeepSeek: 29; Doubao (豆包): 16; Gemini: 9; Claude: 5; Qwen (千问): 3; Kimi: 3; Tencent Yuanbao (腾讯元宝): 1; Zhipu Qingyan (智谱清言): 1</desc>
<rect width="960" height="556" fill="#fbfbf9"/>
<text x="32" y="44" font-size="26" font-weight="700" fill="#202b38">Which LLM apps do you use most?</text>
<text x="32" y="72" font-size="17" fill="#566471">Lecture 01 survey · 69 responses · counted September 15, 2026</text>
<line x1="250.0" y1="88" x2="250.0" y2="492" stroke="#dce2e7" stroke-width="1"/>
<text x="250.0" y="516" font-size="15" fill="#566471" text-anchor="middle">0</text>
<line x1="303.4" y1="88" x2="303.4" y2="492" stroke="#dce2e7" stroke-width="1"/>
<text x="303.4" y="516" font-size="15" fill="#566471" text-anchor="middle">5</text>
<line x1="356.9" y1="88" x2="356.9" y2="492" stroke="#dce2e7" stroke-width="1"/>
<text x="356.9" y="516" font-size="15" fill="#566471" text-anchor="middle">10</text>
<line x1="410.3" y1="88" x2="410.3" y2="492" stroke="#dce2e7" stroke-width="1"/>
<text x="410.3" y="516" font-size="15" fill="#566471" text-anchor="middle">15</text>
<line x1="463.8" y1="88" x2="463.8" y2="492" stroke="#dce2e7" stroke-width="1"/>
<text x="463.8" y="516" font-size="15" fill="#566471" text-anchor="middle">20</text>
<line x1="517.2" y1="88" x2="517.2" y2="492" stroke="#dce2e7" stroke-width="1"/>
<text x="517.2" y="516" font-size="15" fill="#566471" text-anchor="middle">25</text>
<line x1="570.7" y1="88" x2="570.7" y2="492" stroke="#dce2e7" stroke-width="1"/>
<text x="570.7" y="516" font-size="15" fill="#566471" text-anchor="middle">30</text>
<line x1="624.1" y1="88" x2="624.1" y2="492" stroke="#dce2e7" stroke-width="1"/>
<text x="624.1" y="516" font-size="15" fill="#566471" text-anchor="middle">35</text>
<line x1="677.6" y1="88" x2="677.6" y2="492" stroke="#dce2e7" stroke-width="1"/>
<text x="677.6" y="516" font-size="15" fill="#566471" text-anchor="middle">40</text>
<line x1="731.0" y1="88" x2="731.0" y2="492" stroke="#dce2e7" stroke-width="1"/>
<text x="731.0" y="516" font-size="15" fill="#566471" text-anchor="middle">45</text>
<line x1="784.5" y1="88" x2="784.5" y2="492" stroke="#dce2e7" stroke-width="1"/>
<text x="784.5" y="516" font-size="15" fill="#566471" text-anchor="middle">50</text>
<line x1="837.9" y1="88" x2="837.9" y2="492" stroke="#dce2e7" stroke-width="1"/>
<text x="837.9" y="516" font-size="15" fill="#566471" text-anchor="middle">55</text>
<text x="236" y="116.0" font-size="17" fill="#202b38" text-anchor="end">ChatGPT</text>
<rect x="250" y="96" width="620.0" height="28" rx="4" fill="#20578c"/>
<text x="880.0" y="116.0" font-size="16" fill="#202b38">58</text>
<text x="236" y="160.0" font-size="17" fill="#202b38" text-anchor="end">DeepSeek</text>
<rect x="250" y="140" width="310.0" height="28" rx="4" fill="#20578c"/>
<text x="570.0" y="160.0" font-size="16" fill="#202b38">29</text>
<text x="236" y="204.0" font-size="17" fill="#202b38" text-anchor="end">Doubao (豆包)</text>
<rect x="250" y="184" width="171.0" height="28" rx="4" fill="#20578c"/>
<text x="431.0" y="204.0" font-size="16" fill="#202b38">16</text>
<text x="236" y="248.0" font-size="17" fill="#202b38" text-anchor="end">Gemini</text>
<rect x="250" y="228" width="96.2" height="28" rx="4" fill="#20578c"/>
<text x="356.2" y="248.0" font-size="16" fill="#202b38">9</text>
<text x="236" y="292.0" font-size="17" fill="#202b38" text-anchor="end">Claude</text>
<rect x="250" y="272" width="53.4" height="28" rx="4" fill="#20578c"/>
<text x="313.4" y="292.0" font-size="16" fill="#202b38">5</text>
<text x="236" y="336.0" font-size="17" fill="#202b38" text-anchor="end">Qwen (千问)</text>
<rect x="250" y="316" width="32.1" height="28" rx="4" fill="#20578c"/>
<text x="292.1" y="336.0" font-size="16" fill="#202b38">3</text>
<text x="236" y="380.0" font-size="17" fill="#202b38" text-anchor="end">Kimi</text>
<rect x="250" y="360" width="32.1" height="28" rx="4" fill="#20578c"/>
<text x="292.1" y="380.0" font-size="16" fill="#202b38">3</text>
<text x="236" y="424.0" font-size="17" fill="#202b38" text-anchor="end">Tencent Yuanbao (腾讯元宝)</text>
<rect x="250" y="404" width="10.7" height="28" rx="4" fill="#20578c"/>
<text x="270.7" y="424.0" font-size="16" fill="#202b38">1</text>
<text x="236" y="468.0" font-size="17" fill="#202b38" text-anchor="end">Zhipu Qingyan (智谱清言)</text>
<rect x="250" y="448" width="10.7" height="28" rx="4" fill="#20578c"/>
<text x="270.7" y="468.0" font-size="16" fill="#202b38">1</text>
<text x="560.0" y="544" font-size="15" fill="#566471" text-anchor="middle">Students who selected the app (at most two selections each)</text>
</svg>
